solid 
 facet normal  7.071068e-01  0.000000e+00 -7.071068e-01
   outer loop
     vertex  2.000000e+01  8.000000e+00  2.000000e+01
     vertex  0.000000e+00 -8.000000e+00  0.000000e+00
     vertex  0.000000e+00  8.000000e+00  0.000000e+00
   endloop
 endfacet
 facet normal  7.071068e-01  0.000000e+00 -7.071068e-01
   outer loop
     vertex  2.000000e+01  8.000000e+00  2.000000e+01
     vertex  2.000000e+01 -8.000000e+00  2.000000e+01
     vertex  0.000000e+00 -8.000000e+00  0.000000e+00
   endloop
 endfacet
 facet normal  0.000000e+00  1.000000e+00  0.000000e+00
   outer loop
     vertex  2.000000e+01  8.000000e+00  2.000000e+01
     vertex -1.776357e-15  8.000000e+00  1.131371e+01
     vertex  8.686292e+00  8.000000e+00  2.000000e+01
   endloop
 endfacet
 facet normal  0.000000e+00  1.000000e+00  0.000000e+00
   outer loop
     vertex  2.000000e+01  8.000000e+00  2.000000e+01
     vertex  0.000000e+00  8.000000e+00  0.000000e+00
     vertex -1.776357e-15  8.000000e+00  1.131371e+01
   endloop
 endfacet
 facet normal  1.000000e+00 -0.000000e+00  3.552714e-16
   outer loop
     vertex  2.000000e+01 -8.000000e+00  2.000000e+01
     vertex  2.000000e+01  8.000000e+00  2.000000e+01
     vertex  2.000000e+01  8.000000e+00  3.000000e+01
   endloop
 endfacet
 facet normal  1.000000e+00 -0.000000e+00  3.552714e-16
   outer loop
     vertex  2.000000e+01 -8.000000e+00  3.000000e+01
     vertex  2.000000e+01 -8.000000e+00  2.000000e+01
     vertex  2.000000e+01  8.000000e+00  3.000000e+01
   endloop
 endfacet
 facet normal -0.000000e+00 -1.000000e+00  0.000000e+00
   outer loop
     vertex  2.000000e+01 -8.000000e+00  2.000000e+01
     vertex  8.686292e+00 -8.000000e+00  2.000000e+01
     vertex -1.776357e-15 -8.000000e+00  1.131371e+01
   endloop
 endfacet
 facet normal  0.000000e+00 -1.000000e+00  0.000000e+00
   outer loop
     vertex  2.000000e+01 -8.000000e+00  2.000000e+01
     vertex -1.776357e-15 -8.000000e+00  1.131371e+01
     vertex  0.000000e+00 -8.000000e+00  0.000000e+00
   endloop
 endfacet
 facet normal -1.000000e+00  0.000000e+00 -1.570092e-16
   outer loop
     vertex -4.440892e-16 -6.000000e+00  2.828427e+00
     vertex -1.776357e-15 -8.000000e+00  1.131371e+01
     vertex -1.776357e-15 -6.000000e+00  1.131371e+01
   endloop
 endfacet
 facet normal -1.000000e+00  0.000000e+00 -1.570092e-16
   outer loop
     vertex  0.000000e+00 -8.000000e+00  0.000000e+00
     vertex -1.776357e-15 -8.000000e+00  1.131371e+01
     vertex -4.440892e-16 -6.000000e+00  2.828427e+00
   endloop
 endfacet
 facet normal -1.000000e+00  0.000000e+00 -1.570092e-16
   outer loop
     vertex -4.440892e-16  6.000000e+00  2.828427e+00
     vertex -1.776357e-15  6.000000e+00  1.131371e+01
     vertex -1.776357e-15  8.000000e+00  1.131371e+01
   endloop
 endfacet
 facet normal -1.000000e+00  0.000000e+00 -1.570092e-16
   outer loop
     vertex  0.000000e+00  8.000000e+00  0.000000e+00
     vertex -4.440892e-16 -6.000000e+00  2.828427e+00
     vertex -4.440892e-16  6.000000e+00  2.828427e+00
   endloop
 endfacet
 facet normal -1.000000e+00  0.000000e+00 -1.570092e-16
   outer loop
     vertex  0.000000e+00  8.000000e+00  0.000000e+00
     vertex -4.440892e-16  6.000000e+00  2.828427e+00
     vertex -1.776357e-15  8.000000e+00  1.131371e+01
   endloop
 endfacet
 facet normal -1.000000e+00 -0.000000e+00 -1.570092e-16
   outer loop
     vertex  0.000000e+00  8.000000e+00  0.000000e+00
     vertex  0.000000e+00 -8.000000e+00  0.000000e+00
     vertex -4.440892e-16 -6.000000e+00  2.828427e+00
   endloop
 endfacet
 facet normal -7.071068e-01  0.000000e+00  7.071068e-01
   outer loop
     vertex  8.686292e+00  8.000000e+00  2.000000e+01
     vertex -1.776357e-15  8.000000e+00  1.131371e+01
     vertex -1.776357e-15  6.000000e+00  1.131371e+01
   endloop
 endfacet
 facet normal -7.071068e-01  0.000000e+00  7.071068e-01
   outer loop
     vertex  8.686292e+00  8.000000e+00  2.000000e+01
     vertex -1.776357e-15  6.000000e+00  1.131371e+01
     vertex  8.686292e+00  6.000000e+00  2.000000e+01
   endloop
 endfacet
 facet normal  0.000000e+00  1.000000e+00  0.000000e+00
   outer loop
     vertex  2.000000e+01  8.000000e+00  3.000000e+01
     vertex  2.000000e+01  8.000000e+00  2.000000e+01
     vertex  8.686292e+00  8.000000e+00  2.000000e+01
   endloop
 endfacet
 facet normal  0.000000e+00  1.000000e+00  0.000000e+00
   outer loop
     vertex  2.000000e+01  8.000000e+00  3.000000e+01
     vertex  8.686292e+00  8.000000e+00  2.000000e+01
     vertex  8.686292e+00  8.000000e+00  3.000000e+01
   endloop
 endfacet
 facet normal  0.000000e+00 -1.000000e+00 -0.000000e+00
   outer loop
     vertex  2.000000e+01 -8.000000e+00  3.000000e+01
     vertex  8.686292e+00 -8.000000e+00  2.000000e+01
     vertex  2.000000e+01 -8.000000e+00  2.000000e+01
   endloop
 endfacet
 facet normal -0.000000e+00 -1.000000e+00  0.000000e+00
   outer loop
     vertex  2.000000e+01 -8.000000e+00  3.000000e+01
     vertex  8.686292e+00 -8.000000e+00  3.000000e+01
     vertex  8.686292e+00 -8.000000e+00  2.000000e+01
   endloop
 endfacet
 facet normal  0.000000e+00  0.000000e+00  1.000000e+00
   outer loop
     vertex  1.717157e+01 -6.000000e+00  3.000000e+01
     vertex  8.686292e+00 -6.000000e+00  3.000000e+01
     vertex  8.686292e+00 -8.000000e+00  3.000000e+01
   endloop
 endfacet
 facet normal  0.000000e+00  0.000000e+00  1.000000e+00
   outer loop
     vertex  2.000000e+01 -8.000000e+00  3.000000e+01
     vertex  1.717157e+01 -6.000000e+00  3.000000e+01
     vertex  8.686292e+00 -8.000000e+00  3.000000e+01
   endloop
 endfacet
 facet normal  0.000000e+00  0.000000e+00  1.000000e+00
   outer loop
     vertex  1.717157e+01  6.000000e+00  3.000000e+01
     vertex  8.686292e+00  8.000000e+00  3.000000e+01
     vertex  8.686292e+00  6.000000e+00  3.000000e+01
   endloop
 endfacet
 facet normal  0.000000e+00  0.000000e+00  1.000000e+00
   outer loop
     vertex  2.000000e+01  8.000000e+00  3.000000e+01
     vertex  1.717157e+01  6.000000e+00  3.000000e+01
     vertex  1.717157e+01 -6.000000e+00  3.000000e+01
   endloop
 endfacet
 facet normal  0.000000e+00  0.000000e+00  1.000000e+00
   outer loop
     vertex  2.000000e+01  8.000000e+00  3.000000e+01
     vertex  8.686292e+00  8.000000e+00  3.000000e+01
     vertex  1.717157e+01  6.000000e+00  3.000000e+01
   endloop
 endfacet
 facet normal  0.000000e+00  0.000000e+00  1.000000e+00
   outer loop
     vertex  2.000000e+01  8.000000e+00  3.000000e+01
     vertex  1.717157e+01 -6.000000e+00  3.000000e+01
     vertex  2.000000e+01 -8.000000e+00  3.000000e+01
   endloop
 endfacet
 facet normal -7.071068e-01  0.000000e+00  7.071068e-01
   outer loop
     vertex  8.686292e+00 -6.000000e+00  2.000000e+01
     vertex -1.776357e-15 -6.000000e+00  1.131371e+01
     vertex -1.776357e-15 -8.000000e+00  1.131371e+01
   endloop
 endfacet
 facet normal -7.071068e-01  0.000000e+00  7.071068e-01
   outer loop
     vertex  8.686292e+00 -6.000000e+00  2.000000e+01
     vertex -1.776357e-15 -8.000000e+00  1.131371e+01
     vertex  8.686292e+00 -8.000000e+00  2.000000e+01
   endloop
 endfacet
 facet normal -0.000000e+00  1.000000e+00  0.000000e+00
   outer loop
     vertex  8.686292e+00 -6.000000e+00  2.000000e+01
     vertex  1.717157e+01 -6.000000e+00  2.000000e+01
     vertex -4.440892e-16 -6.000000e+00  2.828427e+00
   endloop
 endfacet
 facet normal  0.000000e+00  1.000000e+00  0.000000e+00
   outer loop
     vertex  8.686292e+00 -6.000000e+00  2.000000e+01
     vertex -4.440892e-16 -6.000000e+00  2.828427e+00
     vertex -1.776357e-15 -6.000000e+00  1.131371e+01
   endloop
 endfacet
 facet normal -7.071068e-01  0.000000e+00  7.071068e-01
   outer loop
     vertex  1.717157e+01  6.000000e+00  2.000000e+01
     vertex -4.440892e-16  6.000000e+00  2.828427e+00
     vertex -4.440892e-16 -6.000000e+00  2.828427e+00
   endloop
 endfacet
 facet normal -7.071068e-01  0.000000e+00  7.071068e-01
   outer loop
     vertex  1.717157e+01  6.000000e+00  2.000000e+01
     vertex -4.440892e-16 -6.000000e+00  2.828427e+00
     vertex  1.717157e+01 -6.000000e+00  2.000000e+01
   endloop
 endfacet
 facet normal  0.000000e+00 -1.000000e+00 -0.000000e+00
   outer loop
     vertex  8.686292e+00  6.000000e+00  2.000000e+01
     vertex -4.440892e-16  6.000000e+00  2.828427e+00
     vertex  1.717157e+01  6.000000e+00  2.000000e+01
   endloop
 endfacet
 facet normal  0.000000e+00 -1.000000e+00  0.000000e+00
   outer loop
     vertex  8.686292e+00  6.000000e+00  2.000000e+01
     vertex -1.776357e-15  6.000000e+00  1.131371e+01
     vertex -4.440892e-16  6.000000e+00  2.828427e+00
   endloop
 endfacet
 facet normal -1.000000e+00  0.000000e+00 -3.552714e-16
   outer loop
     vertex  8.686292e+00  6.000000e+00  3.000000e+01
     vertex  8.686292e+00  8.000000e+00  2.000000e+01
     vertex  8.686292e+00  6.000000e+00  2.000000e+01
   endloop
 endfacet
 facet normal -1.000000e+00  0.000000e+00 -3.552714e-16
   outer loop
     vertex  8.686292e+00  6.000000e+00  3.000000e+01
     vertex  8.686292e+00  8.000000e+00  3.000000e+01
     vertex  8.686292e+00  8.000000e+00  2.000000e+01
   endloop
 endfacet
 facet normal -1.000000e+00  0.000000e+00 -3.552714e-16
   outer loop
     vertex  8.686292e+00 -6.000000e+00  3.000000e+01
     vertex  8.686292e+00 -6.000000e+00  2.000000e+01
     vertex  8.686292e+00 -8.000000e+00  2.000000e+01
   endloop
 endfacet
 facet normal -1.000000e+00  0.000000e+00 -3.552714e-16
   outer loop
     vertex  8.686292e+00 -8.000000e+00  3.000000e+01
     vertex  8.686292e+00 -6.000000e+00  3.000000e+01
     vertex  8.686292e+00 -8.000000e+00  2.000000e+01
   endloop
 endfacet
 facet normal  0.000000e+00  1.000000e+00  0.000000e+00
   outer loop
     vertex  8.686292e+00 -6.000000e+00  3.000000e+01
     vertex  1.717157e+01 -6.000000e+00  2.000000e+01
     vertex  8.686292e+00 -6.000000e+00  2.000000e+01
   endloop
 endfacet
 facet normal  0.000000e+00  1.000000e+00  0.000000e+00
   outer loop
     vertex  1.717157e+01 -6.000000e+00  3.000000e+01
     vertex  1.717157e+01 -6.000000e+00  2.000000e+01
     vertex  8.686292e+00 -6.000000e+00  3.000000e+01
   endloop
 endfacet
 facet normal -1.000000e+00  0.000000e+00 -3.552714e-16
   outer loop
     vertex  1.717157e+01 -6.000000e+00  2.000000e+01
     vertex  1.717157e+01  6.000000e+00  3.000000e+01
     vertex  1.717157e+01  6.000000e+00  2.000000e+01
   endloop
 endfacet
 facet normal -1.000000e+00  0.000000e+00 -3.552714e-16
   outer loop
     vertex  1.717157e+01 -6.000000e+00  3.000000e+01
     vertex  1.717157e+01  6.000000e+00  3.000000e+01
     vertex  1.717157e+01 -6.000000e+00  2.000000e+01
   endloop
 endfacet
 facet normal  0.000000e+00 -1.000000e+00  0.000000e+00
   outer loop
     vertex  8.686292e+00  6.000000e+00  3.000000e+01
     vertex  8.686292e+00  6.000000e+00  2.000000e+01
     vertex  1.717157e+01  6.000000e+00  2.000000e+01
   endloop
 endfacet
 facet normal -0.000000e+00 -1.000000e+00 -0.000000e+00
   outer loop
     vertex  1.717157e+01  6.000000e+00  3.000000e+01
     vertex  8.686292e+00  6.000000e+00  3.000000e+01
     vertex  1.717157e+01  6.000000e+00  2.000000e+01
   endloop
 endfacet
endsolid
